# Blender 3.6.0
# www.blender.org
mtllib Perimeter_test4.mtl
o Perimeter_test
v -0.458262 -0.187383 0.060000
v -0.510568 -0.335072 0.060000
v -0.510568 -0.335072 0.300000
v -0.458262 -0.187383 0.300000
v -0.250574 -0.396609 0.060000
v -0.250574 -0.396609 0.300000
v -0.279804 -0.141230 0.060000
v -0.279804 -0.141230 0.300000
v -0.234979 -0.578878 0.060000
v -0.650565 -0.458146 0.060000
v -0.650565 -0.458146 0.300000
v -0.234979 -0.578878 0.300000
v -0.722809 -0.159322 0.060000
v -0.722809 -0.159322 0.300000
v -0.439092 0.046629 0.060000
v -0.439092 0.046629 0.300000
v 0.201723 0.471063 -0.000000
v 0.032496 0.118764 -0.000000
v 0.032496 0.118764 0.300000
v 0.201723 0.471063 0.300000
v 0.686327 0.387988 -0.000000
v 0.686327 0.387988 0.300000
v -0.169038 0.911053 -0.000000
v -0.169038 0.911053 0.300000
v -0.612104 0.427987 -0.000000
v -0.612104 0.427987 0.300000
v 0.861707 -0.388917 0.000000
v 0.861707 -0.388917 0.300000
v 0.736859 0.093833 -0.000000
v 0.736859 0.093833 0.300000
v 0.120000 -0.360000 0.060000
v 0.120000 -0.360000 0.300000
v -0.057489 -0.049940 0.060000
v -0.057489 -0.049940 0.300000
v -0.840000 0.420000 -0.000000
v -0.900000 -0.420000 0.000000
v -0.900000 -0.420000 0.300000
v -0.840000 0.420000 0.300000
v -0.217421 1.029882 -0.000000
v -0.217421 1.029882 0.300000
v 0.614394 0.913560 -0.000000
v 0.614394 0.913560 0.300000
v 1.055541 0.375844 -0.000000
v 1.055541 0.375844 0.300000
v 0.930439 -0.706174 0.000000
v 0.930439 -0.706174 0.300000
v -0.204252 -0.815912 0.000000
v -0.204252 -0.815912 0.300000
v -0.330505 0.378389 -0.000000
v -0.272093 0.519210 -0.000000
v -0.113035 0.563428 -0.000000
v -0.153799 0.386496 0.001410
v -0.330505 0.378389 0.300000
v -0.272093 0.519210 0.300000
v -0.153799 0.386496 0.301410
v 0.124801 0.019535 -0.000000
v -0.131883 0.769108 0.000000
v 0.086561 0.612550 0.001410
v -0.113035 0.563428 0.300000
v -0.131883 0.769108 0.300000
v 0.086561 0.612550 0.301410
vn -0.9426 0.3338 -0.0000
vn -0.2303 -0.9731 -0.0000
vn -0.2504 0.9681 -0.0000
vn 0.9935 0.1137 -0.0000
vn -0.0000 -0.0000 1.0000
vn 0.2790 0.9603 -0.0000
vn 0.9720 0.2350 -0.0000
vn 0.5874 -0.8093 -0.0000
vn -0.9014 0.4330 -0.0000
vn 0.1690 0.9856 -0.0000
vn -0.5217 -0.8531 -0.0000
vn 0.7370 -0.6759 -0.0000
vn 0.4848 0.8746 -0.0000
vn -0.9681 -0.2504 -0.0000
vn -0.0354 -0.9994 -0.0000
vn -0.5248 0.8512 -0.0000
vn -0.8679 -0.4968 -0.0000
vn -0.2453 -0.9694 -0.0000
vn -0.9975 0.0712 -0.0000
vn -0.6998 0.7144 -0.0000
vn 0.1385 0.9904 -0.0000
vn 0.7731 0.6343 -0.0000
vn 0.9934 -0.1149 -0.0000
vn 0.0963 -0.9954 -0.0000
vn -0.4946 -0.8691 -0.0000
vn -0.0000 -0.0000 -1.0000
vn -0.0081 0.0034 1.0000
vn 0.0081 -0.0034 -1.0000
vn -0.7465 -0.6654 -0.0000
vn -0.0458 0.9989 -0.0000
vn 0.9237 -0.3831 -0.0000
vn -0.0069 -0.0006 1.0000
vn 0.0069 0.0006 -1.0000
vn -0.5825 -0.8128 -0.0000
vn -0.2390 0.9710 -0.0000
vn 0.9958 0.0913 -0.0000
vn 0.0026 0.0037 -1.0000
vn -0.0019 0.0001 -1.0000
vn -0.0020 -0.0023 -1.0000
vt -0.000000 0.006000
vt 0.015668 0.006000
vt 0.000000 0.030000
vt 0.015668 0.030000
vt 0.026718 0.006000
vt 0.026718 0.030000
vt 0.018433 0.006000
vt 0.018433 0.030000
vt 0.025705 0.006000
vt 0.025705 0.030000
vt 0.006615 -0.013000
vt 0.012769 0.013000
vt -0.008154 -0.007769
vt -0.012769 0.010077
vt 0.043277 0.006000
vt 0.043277 0.030000
vt 0.030743 0.006000
vt 0.030743 0.030000
vt 0.035059 0.006000
vt 0.035059 0.030000
vt -0.000000 0.000000
vt 0.039084 0.000000
vt 0.039084 0.030000
vt 0.049167 -0.000000
vt 0.049167 0.030000
vt 0.100262 0.000000
vt 0.100262 0.030000
vt 0.065548 0.000000
vt 0.065548 0.030000
vt 0.084253 0.000000
vt 0.168507 0.000000
vt 0.168507 0.030000
vt 0.049863 0.000000
vt 0.049863 0.030000
vt 0.070480 -0.000000
vt 0.070480 0.030000
vt 0.041703 0.006000
vt 0.041703 0.030000
vt 0.035727 0.006000
vt 0.035727 0.030000
vt 0.039363 0.006000
vt 0.039363 0.030000
vt 0.084214 -0.000000
vt 0.084214 0.030000
vt 0.087153 0.000000
vt 0.087153 0.030000
vt 0.083991 0.000000
vt 0.083991 0.030000
vt 0.069552 -0.000000
vt 0.069552 0.030000
vt 0.108923 -0.000000
vt 0.108923 0.030000
vt 0.113999 0.000000
vt 0.113999 0.030000
vt 0.080051 0.000000
vt 0.080051 0.030000
vt 0.006036 -0.051686
vt -0.032100 -0.068987
vt 0.026631 -0.080058
vt -0.031301 -0.091777
vt 0.052699 -0.097777
vt 0.015693 -0.013526
vt 0.049590 0.078394
vt 0.046699 0.004223
vt 0.081316 0.085267
vt 0.092290 -0.028202
vt 0.068586 -0.031275
vt 0.056513 -0.072834
vt -0.036408 0.012395
vt -0.001178 -0.004527
vt -0.028100 0.060856
vt 0.001315 0.065909
vt -0.026886 0.097777
vt -0.092290 -0.029519
vt -0.080407 -0.024681
vt -0.080657 0.053662
vt 0.006895 -0.020916
vt 0.031275 0.006643
vt 0.013048 0.005083
vt 0.009388 0.042140
vt -0.012489 0.002160
vt -0.021618 0.024391
vt -0.031275 -0.013769
vt -0.007874 -0.015686
vt -0.010680 -0.042140
vt 0.019202 -0.034916
vt 0.059860 -0.015388
vt 0.031070 0.069411
vt -0.009715 -0.054979
vt -0.042620 0.028566
vt -0.116311 -0.012279
vt -0.123184 -0.044005
vt -0.135695 0.064197
vt -0.103826 0.035996
vt -0.098773 0.065411
vt -0.033390 0.038489
vt -0.050313 0.073719
vt 0.053860 0.068612
vt -0.008398 0.129601
vt -0.013237 0.117718
vt -0.091580 0.117968
s 0
usemtl Steel_-_Satin
f 1/1/1 2/2/1 4/3/1
f 4/3/1 2/2/1 3/4/1
f 2/1/2 5/5/2 3/3/2
f 3/3/2 5/5/2 6/6/2
f 7/1/3 1/7/3 8/3/3
f 8/3/3 1/7/3 4/8/3
f 5/1/4 7/9/4 6/3/4
f 6/3/4 7/9/4 8/10/4
f 3/11/5 6/12/5 4/13/5
f 4/13/5 6/12/5 8/14/5
f 9/1/6 10/15/6 12/3/6
f 12/3/6 10/15/6 11/16/6
f 10/1/7 13/17/7 11/3/7
f 11/3/7 13/17/7 14/18/7
f 13/1/8 15/19/8 14/3/8
f 14/3/8 15/19/8 16/20/8
f 17/21/9 18/22/9 20/3/9
f 20/3/9 18/22/9 19/23/9
f 21/21/10 17/24/10 22/3/10
f 22/3/10 17/24/10 20/25/10
f 23/21/11 21/26/11 24/3/11
f 24/3/11 21/26/11 22/27/11
f 25/21/12 23/28/12 26/3/12
f 26/3/12 23/28/12 24/29/12
f 27/21/13 56/30/13 25/31/13 28/3/13
f 28/3/13 25/31/13 26/32/13
f 29/21/14 27/33/14 30/3/14
f 30/3/14 27/33/14 28/34/14
f 18/21/15 29/35/15 19/3/15
f 19/3/15 29/35/15 30/36/15
f 31/1/16 9/37/16 32/3/16
f 32/3/16 9/37/16 12/38/16
f 33/1/17 31/39/17 34/3/17
f 34/3/17 31/39/17 32/40/17
f 15/1/18 33/41/18 16/3/18
f 16/3/18 33/41/18 34/42/18
f 35/21/19 36/43/19 38/3/19
f 38/3/19 36/43/19 37/44/19
f 39/21/20 35/45/20 40/3/20
f 40/3/20 35/45/20 38/46/20
f 41/21/21 39/47/21 42/3/21
f 42/3/21 39/47/21 40/48/21
f 43/21/22 41/49/22 44/3/22
f 44/3/22 41/49/22 42/50/22
f 45/21/23 43/51/23 46/3/23
f 46/3/23 43/51/23 44/52/23
f 47/21/24 45/53/24 48/3/24
f 48/3/24 45/53/24 46/54/24
f 36/21/25 47/55/25 37/3/25
f 37/3/25 47/55/25 48/56/25
f 16/57/5 26/58/5 14/59/5
f 14/59/5 26/58/5 38/60/5
f 14/59/5 38/60/5 37/61/5
f 16/57/5 34/62/5 26/58/5
f 26/58/5 34/62/5 28/63/5
f 28/63/5 34/62/5 32/64/5
f 28/63/5 32/64/5 46/65/5
f 46/65/5 32/64/5 48/66/5
f 48/66/5 32/64/5 12/67/5
f 48/66/5 12/67/5 11/68/5
f 48/66/5 11/68/5 37/61/5
f 37/61/5 11/68/5 14/59/5
f 20/69/5 19/70/5 22/71/5
f 22/71/5 19/70/5 30/72/5
f 22/71/5 30/72/5 44/73/5
f 44/73/5 30/72/5 28/63/5
f 44/73/5 28/63/5 46/65/5
f 38/60/5 26/58/5 40/74/5
f 40/74/5 26/58/5 24/75/5
f 40/74/5 24/75/5 42/76/5
f 42/76/5 24/75/5 22/71/5
f 42/76/5 22/71/5 44/73/5
f 2/77/5 9/78/5 5/79/5
f 5/79/5 9/78/5 31/80/5
f 5/79/5 31/80/5 7/81/5
f 7/81/5 31/80/5 33/82/5
f 7/81/5 33/82/5 15/83/5
f 1/84/5 13/85/5 2/77/5
f 2/77/5 13/85/5 10/86/5
f 2/77/5 10/86/5 9/78/5
f 13/85/5 1/84/5 15/83/5
f 15/83/5 1/84/5 7/81/5
f 36/87/26 25/88/26 47/89/26
f 47/89/26 25/88/26 56/90/26 27/91/26
f 47/89/26 27/91/26 45/92/26
f 45/92/26 27/91/26 43/93/26
f 43/93/26 27/91/26 29/94/26
f 43/93/26 29/94/26 21/95/26
f 21/95/26 29/94/26 18/96/26
f 21/95/26 18/96/26 17/97/26
f 36/87/26 35/98/26 25/88/26
f 25/88/26 35/98/26 39/99/26
f 25/88/26 39/99/26 23/100/26
f 23/100/26 39/99/26 41/101/26
f 23/100/26 41/101/26 21/95/26
f 21/95/26 41/101/26 43/93/26
f 50/21/27 49/21/27 52/21/27
f 54/21/28 55/21/28 53/21/28
f 50/21/29 52/21/29 55/21/29 54/21/29
f 52/21/30 49/21/30 53/21/30 55/21/30
f 49/21/31 50/21/31 54/21/31 53/21/31
f 57/21/32 51/21/32 58/21/32
f 60/21/33 61/21/33 59/21/33
f 57/21/34 58/21/34 61/21/34 60/21/34
f 58/21/35 51/21/35 59/21/35 61/21/35
f 51/21/36 57/21/36 60/21/36 59/21/36
f 56/21/26 18/21/26 29/21/26 27/21/26
f 25/21/37 49/21/37 52/21/37 18/21/37 56/21/37
f 23/21/26 57/21/26 51/21/26 50/21/26 49/21/26 25/21/26
f 58/21/38 17/21/38 18/21/38 52/21/38 50/21/38 51/21/38
f 17/21/39 58/21/39 57/21/39 23/21/39 21/21/39
