# Blender 3.6.0
# www.blender.org
mtllib Perimeter_test3.mtl
o Plane
v -0.259973 -0.454845 0.075000
v -0.082003 -0.454845 0.075000
v -0.259973 0.256198 0.075000
v -0.082003 0.256198 0.075000
v -0.052301 -0.076091 0.075000
v 0.125669 -0.076091 0.075000
v -0.052301 0.380049 0.075000
v 0.125669 0.380049 0.075000
v -0.522034 -0.332773 0.075000
v -0.344064 -0.332773 0.075000
v -0.522034 0.149000 0.075000
v -0.344064 0.149000 0.075000
v 0.108892 -0.334197 0.075000
v 0.286862 -0.334197 0.075000
v 0.108892 -0.198465 0.075000
v 0.286862 -0.198465 0.075000
v 0.345242 -0.438033 0.075000
v 0.523212 -0.438033 0.075000
v 0.345242 0.273009 0.075000
v 0.523212 0.273009 0.075000
v -0.186160 0.415200 0.075000
v 0.658258 0.415200 0.075000
v -0.186160 0.570870 0.075000
v 0.658258 0.570870 0.075000
v -0.259973 -0.454845 0.225000
v -0.082003 -0.454845 0.225000
v -0.259973 0.256198 0.225000
v -0.082003 0.256198 0.225000
v -0.052301 -0.076091 0.225000
v 0.125669 -0.076091 0.225000
v -0.052301 0.380049 0.225000
v 0.125669 0.380049 0.225000
v -0.522034 -0.332773 0.225000
v -0.344064 -0.332773 0.225000
v -0.522034 0.149000 0.225000
v -0.344064 0.149000 0.225000
v 0.108892 -0.334197 0.225000
v 0.286862 -0.334197 0.225000
v 0.108892 -0.198465 0.225000
v 0.286862 -0.198465 0.225000
v 0.345242 -0.438033 0.225000
v 0.523212 -0.438033 0.225000
v 0.345242 0.273009 0.225000
v 0.523212 0.273009 0.225000
v -0.186160 0.415200 0.225000
v 0.658258 0.415200 0.225000
v -0.186160 0.570870 0.225000
v 0.658258 0.570870 0.225000
v 0.700261 0.079168 0.075000
v 0.878231 0.079168 0.075000
v 0.700261 0.214901 0.075000
v 0.878231 0.214901 0.075000
v 0.700261 0.079168 0.225000
v 0.878231 0.079168 0.225000
v 0.700261 0.214901 0.225000
v 0.878231 0.214901 0.225000
v 0.597414 -0.257062 0.075000
v 0.775384 -0.257062 0.075000
v 0.597414 -0.121329 0.075000
v 0.775384 -0.121329 0.075000
v 0.597414 -0.257062 0.225000
v 0.775384 -0.257062 0.225000
v 0.597414 -0.121329 0.225000
v 0.775384 -0.121329 0.225000
v 0.031757 -0.563625 0.075000
v 0.209727 -0.563625 0.075000
v 0.031757 -0.427892 0.075000
v 0.209727 -0.427892 0.075000
v 0.031757 -0.563625 0.225000
v 0.209727 -0.563625 0.225000
v 0.031757 -0.427892 0.225000
v 0.209727 -0.427892 0.225000
v -0.765307 0.409465 0.075000
v -0.587337 0.409465 0.075000
v -0.765307 0.545197 0.075000
v -0.587337 0.545197 0.075000
v -0.765307 0.409465 0.225000
v -0.587337 0.409465 0.225000
v -0.765307 0.545197 0.225000
v -0.587337 0.545197 0.225000
v -0.446877 0.640870 0.075000
v -0.268907 0.640870 0.075000
v -0.446877 0.776603 0.075000
v -0.268907 0.776603 0.075000
v -0.446877 0.640870 0.225000
v -0.268907 0.640870 0.225000
v -0.446877 0.776603 0.225000
v -0.268907 0.776603 0.225000
v -0.269489 0.485284 0.075000
v -0.344457 0.559155 0.075000
v -0.614600 0.149071 0.075000
v -0.689567 0.222941 0.075000
v -0.269489 0.485284 0.225000
v -0.344457 0.559155 0.225000
v -0.614600 0.149071 0.225000
v -0.689567 0.222941 0.225000
v 0.577636 0.242668 0.075000
v 1.045687 0.242668 0.075000
v 0.577636 0.375197 0.075000
v 1.045687 0.375197 0.075000
v 0.577636 0.242668 0.225000
v 1.045687 0.242668 0.225000
v 0.577636 0.375197 0.225000
v 1.045687 0.375197 0.225000
v 0.303749 0.068778 0.075000
v 0.301565 0.246735 0.075000
v 0.168027 0.067112 0.075000
v 0.165843 0.245069 0.075000
v 0.303749 0.068778 0.225000
v 0.301565 0.246735 0.225000
v 0.168027 0.067112 0.225000
v 0.165843 0.245069 0.225000
vn -0.0000 -0.0000 -1.0000
vn -0.0000 -0.0000 1.0000
vn -1.0000 -0.0000 -0.0000
vn -0.0000 1.0000 -0.0000
vn -0.0000 -1.0000 -0.0000
vn 1.0000 -0.0000 -0.0000
vn 0.6978 -0.7163 -0.0000
vn 0.7019 0.7123 -0.0000
vn -0.6978 0.7163 -0.0000
vn -0.7019 -0.7123 -0.0000
vn 0.0123 -0.9999 -0.0000
vn 0.9999 0.0123 -0.0000
vn -0.0123 0.9999 -0.0000
vn -0.9999 -0.0123 -0.0000
vt 0.000000 0.000000
vt 0.000000 1.000000
vt 1.000000 1.000000
vt 1.000000 0.000000
s 0
f 1/1/1 3/2/1 4/3/1 2/4/1
f 5/1/1 7/2/1 8/3/1 6/4/1
f 9/1/1 11/2/1 12/3/1 10/4/1
f 13/1/1 15/2/1 16/3/1 14/4/1
f 17/1/1 19/2/1 20/3/1 18/4/1
f 21/1/1 23/2/1 24/3/1 22/4/1
f 25/1/2 26/4/2 28/3/2 27/2/2
f 29/1/2 30/4/2 32/3/2 31/2/2
f 33/1/2 34/4/2 36/3/2 35/2/2
f 37/1/2 38/4/2 40/3/2 39/2/2
f 41/1/2 42/4/2 44/3/2 43/2/2
f 45/1/2 46/4/2 48/3/2 47/2/2
f 7/2/3 5/1/3 29/1/3 31/2/3
f 20/3/4 19/2/4 43/2/4 44/3/4
f 15/2/3 13/1/3 37/1/3 39/2/3
f 5/1/5 6/4/5 30/4/5 29/1/5
f 23/2/3 21/1/3 45/1/3 47/2/3
f 13/1/5 14/4/5 38/4/5 37/1/5
f 6/4/6 8/3/6 32/3/6 30/4/6
f 21/1/5 22/4/5 46/4/5 45/1/5
f 14/4/6 16/3/6 40/3/6 38/4/6
f 8/3/4 7/2/4 31/2/4 32/3/4
f 22/4/6 24/3/6 48/3/6 46/4/6
f 3/2/3 1/1/3 25/1/3 27/2/3
f 16/3/4 15/2/4 39/2/4 40/3/4
f 11/2/3 9/1/3 33/1/3 35/2/3
f 24/3/4 23/2/4 47/2/4 48/3/4
f 1/1/5 2/4/5 26/4/5 25/1/5
f 19/2/3 17/1/3 41/1/3 43/2/3
f 9/1/5 10/4/5 34/4/5 33/1/5
f 2/4/6 4/3/6 28/3/6 26/4/6
f 17/1/5 18/4/5 42/4/5 41/1/5
f 10/4/6 12/3/6 36/3/6 34/4/6
f 4/3/4 3/2/4 27/2/4 28/3/4
f 18/4/6 20/3/6 44/3/6 42/4/6
f 12/3/4 11/2/4 35/2/4 36/3/4
f 49/1/1 51/2/1 52/3/1 50/4/1
f 53/1/2 54/4/2 56/3/2 55/2/2
f 51/2/3 49/1/3 53/1/3 55/2/3
f 49/1/5 50/4/5 54/4/5 53/1/5
f 50/4/6 52/3/6 56/3/6 54/4/6
f 52/3/4 51/2/4 55/2/4 56/3/4
f 57/1/1 59/2/1 60/3/1 58/4/1
f 61/1/2 62/4/2 64/3/2 63/2/2
f 59/2/3 57/1/3 61/1/3 63/2/3
f 57/1/5 58/4/5 62/4/5 61/1/5
f 58/4/6 60/3/6 64/3/6 62/4/6
f 60/3/4 59/2/4 63/2/4 64/3/4
f 65/1/1 67/2/1 68/3/1 66/4/1
f 69/1/2 70/4/2 72/3/2 71/2/2
f 67/2/3 65/1/3 69/1/3 71/2/3
f 65/1/5 66/4/5 70/4/5 69/1/5
f 66/4/6 68/3/6 72/3/6 70/4/6
f 68/3/4 67/2/4 71/2/4 72/3/4
f 73/1/1 75/2/1 76/3/1 74/4/1
f 77/1/2 78/4/2 80/3/2 79/2/2
f 75/2/3 73/1/3 77/1/3 79/2/3
f 73/1/5 74/4/5 78/4/5 77/1/5
f 74/4/6 76/3/6 80/3/6 78/4/6
f 76/3/4 75/2/4 79/2/4 80/3/4
f 81/1/1 83/2/1 84/3/1 82/4/1
f 85/1/2 86/4/2 88/3/2 87/2/2
f 83/2/3 81/1/3 85/1/3 87/2/3
f 81/1/5 82/4/5 86/4/5 85/1/5
f 82/4/6 84/3/6 88/3/6 86/4/6
f 84/3/4 83/2/4 87/2/4 88/3/4
f 89/1/1 91/2/1 92/3/1 90/4/1
f 93/1/2 94/4/2 96/3/2 95/2/2
f 91/2/7 89/1/7 93/1/7 95/2/7
f 89/1/8 90/4/8 94/4/8 93/1/8
f 90/4/9 92/3/9 96/3/9 94/4/9
f 92/3/10 91/2/10 95/2/10 96/3/10
f 97/1/1 99/2/1 100/3/1 98/4/1
f 101/1/2 102/4/2 104/3/2 103/2/2
f 100/3/4 99/2/4 103/2/4 104/3/4
f 99/2/3 97/1/3 101/1/3 103/2/3
f 97/1/5 98/4/5 102/4/5 101/1/5
f 98/4/6 100/3/6 104/3/6 102/4/6
f 105/1/1 107/2/1 108/3/1 106/4/1
f 109/1/2 110/4/2 112/3/2 111/2/2
f 107/2/11 105/1/11 109/1/11 111/2/11
f 105/1/12 106/4/12 110/4/12 109/1/12
f 106/4/13 108/3/13 112/3/13 110/4/13
f 108/3/14 107/2/14 111/2/14 112/3/14
