# Blender 3.6.0
# www.blender.org
mtllib Perimeter_test3.mtl
o Plane
v -0.259973 -0.454845 0.075000
v -0.082003 -0.454845 0.075000
v -0.259973 0.256198 0.075000
v -0.082003 0.256198 0.075000
v -0.186160 0.415200 0.075000
v 0.658258 0.415200 0.075000
v -0.186160 0.570870 0.075000
v 0.658258 0.570870 0.075000
v -0.259973 -0.454845 0.225000
v -0.082003 -0.454845 0.225000
v -0.259973 0.256198 0.225000
v -0.082003 0.256198 0.225000
v -0.186160 0.415200 0.225000
v 0.658258 0.415200 0.225000
v -0.186160 0.570870 0.225000
v 0.658258 0.570870 0.225000
v 0.743700 -0.589719 0.225000
v 0.743700 -0.589719 0.075000
v -0.278722 -0.589719 0.225000
v -0.278722 -0.589719 0.075000
v 0.743700 -0.745389 0.075000
v 0.743700 -0.745389 0.225000
v -0.278722 -0.745389 0.075000
v -0.278722 -0.745389 0.225000
v 0.862370 -0.745389 0.225000
v 0.862370 -0.745389 0.075000
v 0.862370 -0.589719 0.075000
v 0.862370 -0.589719 0.225000
v 0.862370 0.791595 0.075000
v 0.743700 0.663432 0.075000
v 0.743700 0.663432 0.225000
v 0.862370 0.791595 0.225000
v 0.743700 0.791595 0.225000
v 0.743700 0.791595 0.075000
v 0.862370 0.663432 0.225000
v 0.862370 0.663432 0.075000
v -0.405022 0.663432 0.075000
v -0.405022 0.663432 0.225000
v -0.405022 0.791595 0.225000
v -0.405022 0.791595 0.075000
v 0.262933 -0.080626 0.075000
v 0.440903 -0.080626 0.075000
v 0.262933 0.263033 0.075000
v 0.440903 0.263033 0.075000
v 0.262933 -0.080626 0.225000
v 0.440903 -0.080626 0.225000
v 0.262933 0.263033 0.225000
v 0.440903 0.263033 0.225000
v 0.139896 -0.459989 0.075000
v 0.317866 -0.459989 0.075000
v 0.139896 -0.263290 0.075000
v 0.317866 -0.263290 0.075000
v 0.139896 -0.459989 0.225000
v 0.317866 -0.459989 0.225000
v 0.139896 -0.263290 0.225000
v 0.317866 -0.263290 0.225000
vn -0.0000 -0.0000 -1.0000
vn -0.0000 -0.0000 1.0000
vn -1.0000 -0.0000 -0.0000
vn -0.0000 -1.0000 -0.0000
vn 1.0000 -0.0000 -0.0000
vn -0.0000 1.0000 -0.0000
vt 0.000000 0.000000
vt 0.000000 1.000000
vt 1.000000 1.000000
vt 1.000000 0.000000
s 0
f 1/1/1 3/2/1 4/3/1 2/4/1
f 5/1/1 7/2/1 8/3/1 6/4/1
f 9/1/2 10/4/2 12/3/2 11/2/2
f 13/1/2 14/4/2 16/3/2 15/2/2
f 7/2/3 5/1/3 13/1/3 15/2/3
f 5/1/4 6/4/4 14/4/4 13/1/4
f 6/4/5 8/3/5 16/3/5 14/4/5
f 3/2/3 1/1/3 9/1/3 11/2/3
f 8/3/6 7/2/6 15/2/6 16/3/6
f 1/1/4 2/4/4 10/4/4 9/1/4
f 2/4/5 4/3/5 12/3/5 10/4/5
f 4/3/6 3/2/6 11/2/6 12/3/6
f 23/1/4 21/4/4 22/4/4 24/1/4
f 24/1/2 22/4/2 17/3/2 19/2/2
f 23/1/1 20/2/1 18/3/1 21/4/1
f 20/2/3 23/1/3 24/1/3 19/2/3
f 26/4/5 27/3/5 28/3/5 25/4/5
f 22/4/4 21/4/4 26/4/4 25/4/4
f 18/3/3 17/3/3 31/3/3 30/3/3
f 17/3/2 28/3/2 35/3/2 31/3/2
f 18/3/6 20/2/6 19/2/6 17/3/6
f 21/4/1 18/3/1 27/3/1 26/4/1
f 28/3/5 27/3/5 36/3/5 35/3/5
f 34/3/6 33/3/6 32/3/6 29/3/6
f 17/3/2 22/4/2 25/4/2 28/3/2
f 35/3/5 36/3/5 29/3/5 32/3/5
f 31/3/2 35/3/2 32/3/2 33/3/2
f 33/3/6 34/3/6 40/3/6 39/3/6
f 36/3/1 30/3/1 34/3/1 29/3/1
f 27/3/1 18/3/1 30/3/1 36/3/1
f 37/3/3 38/3/3 39/3/3 40/3/3
f 34/3/1 30/3/1 37/3/1 40/3/1
f 30/3/4 31/3/4 38/3/4 37/3/4
f 31/3/2 33/3/2 39/3/2 38/3/2
f 41/1/1 43/2/1 44/3/1 42/4/1
f 45/1/2 46/4/2 48/3/2 47/2/2
f 43/2/3 41/1/3 45/1/3 47/2/3
f 41/1/4 42/4/4 46/4/4 45/1/4
f 42/4/5 44/3/5 48/3/5 46/4/5
f 44/3/6 43/2/6 47/2/6 48/3/6
f 49/1/1 51/2/1 52/3/1 50/4/1
f 53/1/2 54/4/2 56/3/2 55/2/2
f 51/2/3 49/1/3 53/1/3 55/2/3
f 49/1/4 50/4/4 54/4/4 53/1/4
f 50/4/5 52/3/5 56/3/5 54/4/5
f 52/3/6 51/2/6 55/2/6 56/3/6
