# WaveFront *.obj file (generated by Autodesk ATF)

mtllib Pyramid.mtl

g Body1

v 0.750000 -0.750000 0.000000
v -0.000000 -0.000000 2.060608
v -0.750000 -0.750000 0.000000
v -0.750000 0.750000 0.000000
v 0.750000 0.750000 0.000000
vt 0.000000 0.000000 0.000000
vt -0.075000 0.219285 0.000000
vt -0.150000 0.000000 0.000000
vt 0.000000 0.000000 0.000000
vt -0.075000 0.219285 0.000000
vt -0.150000 0.000000 0.000000
vt 0.000000 0.000000 0.000000
vt -0.075000 0.219285 0.000000
vt -0.150000 0.000000 0.000000
vt 0.000000 0.000000 0.000000
vt -0.075000 0.219285 0.000000
vt -0.150000 0.000000 0.000000
vt -0.075000 -0.075000 0.000000
vt 0.075000 -0.075000 0.000000
vt -0.075000 0.075000 0.000000
vt 0.075000 0.075000 0.000000
vn 0.000000 -0.093969 0.034202
vn 0.000000 -0.093969 0.034202
vn 0.000000 -0.093969 0.034202
vn -0.093969 0.000000 0.034202
vn -0.093969 0.000000 0.034202
vn -0.093969 0.000000 0.034202
vn 0.000000 0.093969 0.034202
vn 0.000000 0.093969 0.034202
vn 0.000000 0.093969 0.034202
vn 0.093969 -0.000000 0.034202
vn 0.093969 -0.000000 0.034202
vn 0.093969 -0.000000 0.034202
vn 0.000000 0.000000 -0.100000
vn 0.000000 0.000000 -0.100000
vn 0.000000 0.000000 -0.100000
vn 0.000000 0.000000 -0.100000
usemtl Steel_-_Satin
f 1/1/1 2/2/2 3/3/3
f 3/4/4 2/5/5 4/6/6
f 4/7/7 2/8/8 5/9/9
f 5/10/10 2/11/11 1/12/12
f 1/13/13 3/14/14 5/15/15
f 5/15/15 3/14/14 4/16/16
# 5 vertices
# 16 texture params
# 16 normals
# 6 facets

# 1 groups
