# Blender 3.6.0
# www.blender.org
mtllib Sphere.mtl
o Sphere
v 0.000000 0.382683 -0.923880
v 0.000000 0.000000 -1.000000
v 0.000000 -0.382683 -0.923880
v 0.000000 -0.923880 -0.382683
v 0.146447 0.923880 -0.353553
v 0.270598 0.707107 -0.653281
v 0.353553 0.382683 -0.853553
v 0.382683 0.000000 -0.923880
v 0.353553 -0.382683 -0.853553
v 0.270598 -0.707107 -0.653281
v 0.146447 -0.923880 -0.353553
v 0.270598 0.923880 -0.270598
v 0.500000 0.707107 -0.500000
v 0.653282 0.382683 -0.653281
v 0.707107 0.000000 -0.707107
v 0.653282 -0.382683 -0.653281
v 0.500000 -0.707107 -0.500000
v 0.270598 -0.923880 -0.270598
v 0.353553 0.923880 -0.146447
v 0.653281 0.707107 -0.270598
v 0.853553 0.382683 -0.353553
v 0.923880 0.000000 -0.382683
v 0.853553 -0.382683 -0.353553
v 0.653281 -0.707107 -0.270598
v 0.353553 -0.923880 -0.146447
v 0.382683 0.923880 0.000000
v 0.707107 0.707107 0.000000
v 0.923880 0.382683 0.000000
v 1.000000 0.000000 0.000000
v 0.923880 -0.382683 0.000000
v 0.707107 -0.707107 0.000000
v 0.382683 -0.923880 0.000000
v 0.353553 0.923880 0.146447
v 0.653281 0.707107 0.270598
v 0.853553 0.382683 0.353554
v 0.923879 0.000000 0.382684
v 0.853553 -0.382683 0.353554
v 0.653281 -0.707107 0.270598
v 0.353553 -0.923880 0.146447
v 0.270598 0.923880 0.270598
v 0.500000 0.707107 0.500000
v 0.653281 0.382683 0.653282
v 0.707107 0.000000 0.707107
v 0.653281 -0.382683 0.653282
v 0.500000 -0.707107 0.500000
v 0.270598 -0.923880 0.270598
v 0.146447 0.923880 0.353553
v 0.270598 0.707107 0.653281
v 0.353553 0.382683 0.853553
v 0.382683 0.000000 0.923880
v 0.353553 -0.382683 0.853553
v 0.270598 -0.707107 0.653281
v 0.146447 -0.923880 0.353553
v -0.000000 0.923880 0.382683
v -0.000000 0.707107 0.707107
v -0.000000 0.382683 0.923879
v -0.000000 0.000000 1.000000
v -0.000000 -0.382683 0.923879
v -0.000000 -0.707107 0.707107
v -0.000000 -0.923880 0.382683
v 0.000000 -1.000000 0.000000
v 0.000000 1.000000 0.000000
v -0.146447 0.923880 0.353553
v -0.270598 0.707107 0.653281
v -0.353554 0.382683 0.853553
v -0.382684 0.000000 0.923879
v -0.353554 -0.382683 0.853553
v -0.270598 -0.707107 0.653281
v -0.146447 -0.923880 0.353553
v -0.270598 0.923880 0.270598
v -0.500000 0.707107 0.500000
v -0.653282 0.382683 0.653281
v -0.707107 0.000000 0.707106
v -0.653282 -0.382683 0.653281
v -0.500000 -0.707107 0.500000
v -0.270598 -0.923880 0.270598
v -0.353553 0.923880 0.146446
v -0.653281 0.707107 0.270598
v -0.853553 0.382683 0.353553
v -0.923880 0.000000 0.382683
v -0.853553 -0.382683 0.353553
v -0.653281 -0.707107 0.270598
v -0.353553 -0.923880 0.146446
v -0.382683 0.923880 -0.000000
v -0.707107 0.707107 -0.000000
v -0.923879 0.382683 -0.000000
v -1.000000 0.000000 -0.000001
v -0.923879 -0.382683 -0.000000
v -0.707107 -0.707107 -0.000000
v -0.382683 -0.923880 -0.000000
v -0.353553 0.923880 -0.146447
v -0.653281 0.707107 -0.270598
v -0.853553 0.382683 -0.353554
v -0.923879 0.000000 -0.382684
v -0.853553 -0.382683 -0.353554
v -0.653281 -0.707107 -0.270598
v -0.353553 -0.923880 -0.146447
v -0.270598 0.923880 -0.270598
v -0.500000 0.707107 -0.500000
v -0.653281 0.382683 -0.653282
v -0.707106 0.000000 -0.707107
v -0.653281 -0.382683 -0.653282
v -0.500000 -0.707107 -0.500000
v -0.270598 -0.923880 -0.270598
v -0.146446 0.923880 -0.353554
v -0.270598 0.707107 -0.653281
v -0.353553 0.382683 -0.853553
v -0.382683 0.000000 -0.923880
v -0.353553 -0.382683 -0.853553
v -0.270598 -0.707107 -0.653281
v -0.146446 -0.923880 -0.353554
v 0.000000 0.923880 -0.382683
v 0.000000 0.707107 -0.707107
v 0.000000 -0.707107 -0.707107
vn 0.0388 0.9800 -0.1949
vn 0.0388 -0.9800 -0.1949
vn 0.1632 -0.5481 -0.8203
vn 0.1915 0.1915 -0.9626
vn 0.1098 0.8264 -0.5522
vn 0.1098 -0.8264 -0.5522
vn 0.1915 -0.1915 -0.9626
vn 0.1632 0.5481 -0.8203
vn 0.5453 0.1915 -0.8161
vn 0.3128 0.8264 -0.4681
vn 0.3128 -0.8264 -0.4681
vn 0.5453 -0.1915 -0.8161
vn 0.4647 0.5481 -0.6954
vn 0.1104 0.9800 -0.1653
vn 0.1104 -0.9800 -0.1653
vn 0.4647 -0.5481 -0.6954
vn 0.4681 -0.8264 -0.3128
vn 0.8161 -0.1915 -0.5453
vn 0.6954 0.5481 -0.4647
vn 0.1653 0.9800 -0.1104
vn 0.1653 -0.9800 -0.1104
vn 0.6954 -0.5481 -0.4647
vn 0.8161 0.1915 -0.5453
vn 0.4681 0.8264 -0.3128
vn 0.8203 0.5481 -0.1632
vn 0.1949 0.9800 -0.0388
vn 0.1949 -0.9800 -0.0388
vn 0.8203 -0.5481 -0.1632
vn 0.9626 0.1915 -0.1915
vn 0.5522 0.8264 -0.1098
vn 0.5522 -0.8264 -0.1098
vn 0.9626 -0.1915 -0.1915
vn 0.1949 -0.9800 0.0388
vn 0.8203 -0.5481 0.1632
vn 0.9626 0.1915 0.1915
vn 0.5522 0.8264 0.1098
vn 0.5522 -0.8264 0.1098
vn 0.9626 -0.1915 0.1915
vn 0.8203 0.5481 0.1632
vn 0.1949 0.9800 0.0388
vn 0.4681 0.8264 0.3128
vn 0.4681 -0.8264 0.3128
vn 0.8161 -0.1915 0.5453
vn 0.6954 0.5481 0.4647
vn 0.1653 0.9800 0.1104
vn 0.1653 -0.9800 0.1104
vn 0.6954 -0.5481 0.4647
vn 0.8161 0.1915 0.5453
vn 0.3128 -0.8264 0.4681
vn 0.5453 -0.1915 0.8161
vn 0.4647 0.5481 0.6954
vn 0.1104 0.9800 0.1653
vn 0.1104 -0.9800 0.1653
vn 0.4647 -0.5481 0.6954
vn 0.5453 0.1915 0.8161
vn 0.3128 0.8264 0.4681
vn 0.0388 0.9800 0.1949
vn 0.0388 -0.9800 0.1949
vn 0.1632 -0.5481 0.8203
vn 0.1915 0.1915 0.9626
vn 0.1098 0.8264 0.5522
vn 0.1098 -0.8264 0.5522
vn 0.1915 -0.1915 0.9626
vn 0.1632 0.5481 0.8203
vn -0.1632 -0.5481 0.8203
vn -0.1915 0.1915 0.9626
vn -0.1098 0.8264 0.5522
vn -0.1098 -0.8264 0.5522
vn -0.1915 -0.1915 0.9626
vn -0.1632 0.5481 0.8203
vn -0.0388 0.9800 0.1949
vn -0.0388 -0.9800 0.1949
vn -0.3128 -0.8264 0.4681
vn -0.5453 -0.1915 0.8161
vn -0.4647 0.5481 0.6954
vn -0.1104 0.9800 0.1653
vn -0.1104 -0.9800 0.1653
vn -0.4647 -0.5481 0.6954
vn -0.5453 0.1915 0.8161
vn -0.3128 0.8264 0.4681
vn -0.8161 -0.1915 0.5453
vn -0.6954 0.5481 0.4647
vn -0.1653 0.9800 0.1104
vn -0.1653 -0.9800 0.1104
vn -0.6954 -0.5481 0.4647
vn -0.8161 0.1915 0.5453
vn -0.4681 0.8264 0.3128
vn -0.4681 -0.8264 0.3128
vn -0.1949 -0.9800 0.0388
vn -0.8203 -0.5481 0.1632
vn -0.9626 0.1915 0.1915
vn -0.5522 0.8264 0.1098
vn -0.5522 -0.8264 0.1098
vn -0.9626 -0.1915 0.1915
vn -0.8203 0.5481 0.1632
vn -0.1949 0.9800 0.0388
vn -0.9626 0.1915 -0.1915
vn -0.5522 0.8264 -0.1098
vn -0.5522 -0.8264 -0.1098
vn -0.9626 -0.1915 -0.1915
vn -0.8203 0.5481 -0.1632
vn -0.1949 0.9800 -0.0388
vn -0.1949 -0.9800 -0.0388
vn -0.8203 -0.5481 -0.1632
vn -0.4681 -0.8264 -0.3128
vn -0.8161 -0.1915 -0.5453
vn -0.6954 0.5481 -0.4647
vn -0.1653 0.9800 -0.1104
vn -0.1653 -0.9800 -0.1104
vn -0.6954 -0.5481 -0.4647
vn -0.8161 0.1915 -0.5453
vn -0.4681 0.8264 -0.3128
vn -0.4647 0.5481 -0.6954
vn -0.1104 0.9800 -0.1653
vn -0.1104 -0.9800 -0.1653
vn -0.4647 -0.5481 -0.6954
vn -0.5453 0.1915 -0.8161
vn -0.3128 0.8264 -0.4681
vn -0.3128 -0.8264 -0.4681
vn -0.5453 -0.1915 -0.8161
vn -0.0388 -0.9800 -0.1949
vn -0.1632 -0.5481 -0.8203
vn -0.1915 0.1915 -0.9626
vn -0.1098 0.8264 -0.5522
vn -0.1098 -0.8264 -0.5522
vn -0.1915 -0.1915 -0.9626
vn -0.1632 0.5481 -0.8203
vn -0.0388 0.9800 -0.1949
vt 0.750000 0.875000
vt 0.718750 1.000000
vt 0.687500 0.875000
vt 0.718750 0.000000
vt 0.750000 0.125000
vt 0.687500 0.125000
vt 0.750000 0.250000
vt 0.750000 0.375000
vt 0.687500 0.375000
vt 0.687500 0.250000
vt 0.750000 0.500000
vt 0.750000 0.625000
vt 0.687500 0.625000
vt 0.687500 0.500000
vt 0.750000 0.750000
vt 0.687500 0.750000
vt 0.625000 0.625000
vt 0.625000 0.500000
vt 0.625000 0.875000
vt 0.625000 0.750000
vt 0.625000 0.250000
vt 0.625000 0.125000
vt 0.625000 0.375000
vt 0.656250 1.000000
vt 0.656250 0.000000
vt 0.562500 0.250000
vt 0.562500 0.125000
vt 0.562500 0.500000
vt 0.562500 0.375000
vt 0.562500 0.750000
vt 0.562500 0.625000
vt 0.593750 1.000000
vt 0.562500 0.875000
vt 0.593750 0.000000
vt 0.500000 0.750000
vt 0.500000 0.625000
vt 0.531250 1.000000
vt 0.500000 0.875000
vt 0.531250 0.000000
vt 0.500000 0.125000
vt 0.500000 0.375000
vt 0.500000 0.250000
vt 0.500000 0.500000
vt 0.468750 0.000000
vt 0.437500 0.125000
vt 0.437500 0.375000
vt 0.437500 0.250000
vt 0.437500 0.625000
vt 0.437500 0.500000
vt 0.437500 0.875000
vt 0.437500 0.750000
vt 0.468750 1.000000
vt 0.375000 0.875000
vt 0.375000 0.750000
vt 0.375000 0.250000
vt 0.375000 0.125000
vt 0.375000 0.500000
vt 0.375000 0.375000
vt 0.375000 0.625000
vt 0.406250 1.000000
vt 0.406250 0.000000
vt 0.312500 0.250000
vt 0.312500 0.125000
vt 0.312500 0.500000
vt 0.312500 0.375000
vt 0.312500 0.750000
vt 0.312500 0.625000
vt 0.343750 1.000000
vt 0.312500 0.875000
vt 0.343750 0.000000
vt 0.281250 1.000000
vt 0.250000 0.875000
vt 0.281250 0.000000
vt 0.250000 0.125000
vt 0.250000 0.375000
vt 0.250000 0.250000
vt 0.250000 0.625000
vt 0.250000 0.500000
vt 0.250000 0.750000
vt 0.187500 0.375000
vt 0.187500 0.250000
vt 0.187500 0.625000
vt 0.187500 0.500000
vt 0.187500 0.875000
vt 0.187500 0.750000
vt 0.187500 0.125000
vt 0.218750 1.000000
vt 0.218750 0.000000
vt 0.125000 0.250000
vt 0.125000 0.125000
vt 0.125000 0.500000
vt 0.125000 0.375000
vt 0.125000 0.750000
vt 0.125000 0.625000
vt 0.156250 1.000000
vt 0.125000 0.875000
vt 0.156250 0.000000
vt 0.062500 0.500000
vt 0.062500 0.375000
vt 0.062500 0.750000
vt 0.062500 0.625000
vt 0.093750 1.000000
vt 0.062500 0.875000
vt 0.093750 0.000000
vt 0.062500 0.125000
vt 0.062500 0.250000
vt 0.031250 0.000000
vt 0.000000 0.125000
vt 0.000000 0.375000
vt 0.000000 0.250000
vt 0.000000 0.625000
vt 0.000000 0.500000
vt 0.000000 0.875000
vt 0.000000 0.750000
vt 0.031250 1.000000
vt 1.000000 0.500000
vt 1.000000 0.625000
vt 0.937500 0.625000
vt 0.937500 0.500000
vt 1.000000 0.750000
vt 1.000000 0.875000
vt 0.937500 0.875000
vt 0.937500 0.750000
vt 1.000000 0.125000
vt 1.000000 0.250000
vt 0.937500 0.250000
vt 0.937500 0.125000
vt 1.000000 0.375000
vt 0.937500 0.375000
vt 0.968750 1.000000
vt 0.968750 0.000000
vt 0.875000 0.250000
vt 0.875000 0.125000
vt 0.875000 0.500000
vt 0.875000 0.375000
vt 0.875000 0.750000
vt 0.875000 0.625000
vt 0.906250 1.000000
vt 0.875000 0.875000
vt 0.906250 0.000000
vt 0.812500 0.750000
vt 0.812500 0.625000
vt 0.843750 1.000000
vt 0.812500 0.875000
vt 0.843750 0.000000
vt 0.812500 0.125000
vt 0.812500 0.375000
vt 0.812500 0.250000
vt 0.812500 0.500000
vt 0.781250 0.000000
vt 0.781250 1.000000
s 0
f 112/1/1 62/2/1 5/3/1
f 61/4/2 4/5/2 11/6/2
f 114/7/3 3/8/3 9/9/3 10/10/3
f 2/11/4 1/12/4 7/13/4 8/14/4
f 113/15/5 112/1/5 5/3/5 6/16/5
f 4/5/6 114/7/6 10/10/6 11/6/6
f 3/8/7 2/11/7 8/14/7 9/9/7
f 1/12/8 113/15/8 6/16/8 7/13/8
f 8/14/9 7/13/9 14/17/9 15/18/9
f 6/16/10 5/3/10 12/19/10 13/20/10
f 11/6/11 10/10/11 17/21/11 18/22/11
f 9/9/12 8/14/12 15/18/12 16/23/12
f 7/13/13 6/16/13 13/20/13 14/17/13
f 5/3/14 62/24/14 12/19/14
f 61/25/15 11/6/15 18/22/15
f 10/10/16 9/9/16 16/23/16 17/21/16
f 18/22/17 17/21/17 24/26/17 25/27/17
f 16/23/18 15/18/18 22/28/18 23/29/18
f 14/17/19 13/20/19 20/30/19 21/31/19
f 12/19/20 62/32/20 19/33/20
f 61/34/21 18/22/21 25/27/21
f 17/21/22 16/23/22 23/29/22 24/26/22
f 15/18/23 14/17/23 21/31/23 22/28/23
f 13/20/24 12/19/24 19/33/24 20/30/24
f 21/31/25 20/30/25 27/35/25 28/36/25
f 19/33/26 62/37/26 26/38/26
f 61/39/27 25/27/27 32/40/27
f 24/26/28 23/29/28 30/41/28 31/42/28
f 22/28/29 21/31/29 28/36/29 29/43/29
f 20/30/30 19/33/30 26/38/30 27/35/30
f 25/27/31 24/26/31 31/42/31 32/40/31
f 23/29/32 22/28/32 29/43/32 30/41/32
f 61/44/33 32/40/33 39/45/33
f 31/42/34 30/41/34 37/46/34 38/47/34
f 29/43/35 28/36/35 35/48/35 36/49/35
f 27/35/36 26/38/36 33/50/36 34/51/36
f 32/40/37 31/42/37 38/47/37 39/45/37
f 30/41/38 29/43/38 36/49/38 37/46/38
f 28/36/39 27/35/39 34/51/39 35/48/39
f 26/38/40 62/52/40 33/50/40
f 34/51/41 33/50/41 40/53/41 41/54/41
f 39/45/42 38/47/42 45/55/42 46/56/42
f 37/46/43 36/49/43 43/57/43 44/58/43
f 35/48/44 34/51/44 41/54/44 42/59/44
f 33/50/45 62/60/45 40/53/45
f 61/61/46 39/45/46 46/56/46
f 38/47/47 37/46/47 44/58/47 45/55/47
f 36/49/48 35/48/48 42/59/48 43/57/48
f 46/56/49 45/55/49 52/62/49 53/63/49
f 44/58/50 43/57/50 50/64/50 51/65/50
f 42/59/51 41/54/51 48/66/51 49/67/51
f 40/53/52 62/68/52 47/69/52
f 61/70/53 46/56/53 53/63/53
f 45/55/54 44/58/54 51/65/54 52/62/54
f 43/57/55 42/59/55 49/67/55 50/64/55
f 41/54/56 40/53/56 47/69/56 48/66/56
f 47/69/57 62/71/57 54/72/57
f 61/73/58 53/63/58 60/74/58
f 52/62/59 51/65/59 58/75/59 59/76/59
f 50/64/60 49/67/60 56/77/60 57/78/60
f 48/66/61 47/69/61 54/72/61 55/79/61
f 53/63/62 52/62/62 59/76/62 60/74/62
f 51/65/63 50/64/63 57/78/63 58/75/63
f 49/67/64 48/66/64 55/79/64 56/77/64
f 59/76/65 58/75/65 67/80/65 68/81/65
f 57/78/66 56/77/66 65/82/66 66/83/66
f 55/79/67 54/72/67 63/84/67 64/85/67
f 60/74/68 59/76/68 68/81/68 69/86/68
f 58/75/69 57/78/69 66/83/69 67/80/69
f 56/77/70 55/79/70 64/85/70 65/82/70
f 54/72/71 62/87/71 63/84/71
f 61/88/72 60/74/72 69/86/72
f 69/86/73 68/81/73 75/89/73 76/90/73
f 67/80/74 66/83/74 73/91/74 74/92/74
f 65/82/75 64/85/75 71/93/75 72/94/75
f 63/84/76 62/95/76 70/96/76
f 61/97/77 69/86/77 76/90/77
f 68/81/78 67/80/78 74/92/78 75/89/78
f 66/83/79 65/82/79 72/94/79 73/91/79
f 64/85/80 63/84/80 70/96/80 71/93/80
f 74/92/81 73/91/81 80/98/81 81/99/81
f 72/94/82 71/93/82 78/100/82 79/101/82
f 70/96/83 62/102/83 77/103/83
f 61/104/84 76/90/84 83/105/84
f 75/89/85 74/92/85 81/99/85 82/106/85
f 73/91/86 72/94/86 79/101/86 80/98/86
f 71/93/87 70/96/87 77/103/87 78/100/87
f 76/90/88 75/89/88 82/106/88 83/105/88
f 61/107/89 83/105/89 90/108/89
f 82/106/90 81/99/90 88/109/90 89/110/90
f 80/98/91 79/101/91 86/111/91 87/112/91
f 78/100/92 77/103/92 84/113/92 85/114/92
f 83/105/93 82/106/93 89/110/93 90/108/93
f 81/99/94 80/98/94 87/112/94 88/109/94
f 79/101/95 78/100/95 85/114/95 86/111/95
f 77/103/96 62/115/96 84/113/96
f 87/116/97 86/117/97 93/118/97 94/119/97
f 85/120/98 84/121/98 91/122/98 92/123/98
f 90/124/99 89/125/99 96/126/99 97/127/99
f 88/128/100 87/116/100 94/119/100 95/129/100
f 86/117/101 85/120/101 92/123/101 93/118/101
f 84/121/102 62/130/102 91/122/102
f 61/131/103 90/124/103 97/127/103
f 89/125/104 88/128/104 95/129/104 96/126/104
f 97/127/105 96/126/105 103/132/105 104/133/105
f 95/129/106 94/119/106 101/134/106 102/135/106
f 93/118/107 92/123/107 99/136/107 100/137/107
f 91/122/108 62/138/108 98/139/108
f 61/140/109 97/127/109 104/133/109
f 96/126/110 95/129/110 102/135/110 103/132/110
f 94/119/111 93/118/111 100/137/111 101/134/111
f 92/123/112 91/122/112 98/139/112 99/136/112
f 100/137/113 99/136/113 106/141/113 107/142/113
f 98/139/114 62/143/114 105/144/114
f 61/145/115 104/133/115 111/146/115
f 103/132/116 102/135/116 109/147/116 110/148/116
f 101/134/117 100/137/117 107/142/117 108/149/117
f 99/136/118 98/139/118 105/144/118 106/141/118
f 104/133/119 103/132/119 110/148/119 111/146/119
f 102/135/120 101/134/120 108/149/120 109/147/120
f 61/150/121 111/146/121 4/5/121
f 110/148/122 109/147/122 3/8/122 114/7/122
f 108/149/123 107/142/123 1/12/123 2/11/123
f 106/141/124 105/144/124 112/1/124 113/15/124
f 111/146/125 110/148/125 114/7/125 4/5/125
f 109/147/126 108/149/126 2/11/126 3/8/126
f 107/142/127 106/141/127 113/15/127 1/12/127
f 105/144/128 62/151/128 112/1/128
